<svg xmlns="http://www.w3.org/2000/svg" width="2.56em" height="1em" viewBox="0 0 320 125" role="img" aria-label="Alipay">
  <rect width="320" height="125" rx="18" fill="#fff"/>
  <rect x="1.5" y="1.5" width="317" height="122" rx="16.5" fill="none" stroke="#d7dde7" stroke-width="3"/>
  <rect x="18" y="17" width="91" height="91" rx="20" fill="#1677ff"/>
  <path fill="#fff" d="M84.96 73.84c6.23-9.38 9.46-19.45 10.18-29.63H70.1V32.56H57.28v11.65H31.8v10.81h45.35c-1.36 5.3-3.57 10.33-6.53 15.04c-9.58-3.47-19.98-6.24-30.66-8.16l-3.23 9.86c9.75 2.1 19.02 4.87 27.5 8.27c-8.62 7.63-20.16 13.13-34.47 16.04l5.67 10.38c15.79-3.77 28.5-10.42 38.02-19.54c7.49 3.82 14.22 8.07 19.76 12.63l7.88-9.45c-4.64-3.7-10.06-7.2-16.13-10.25Z"/>
  <path fill="#1677ff" d="M139.18 86.83h-12.05l23.74-49.66h12.39l23.74 49.66h-12.3l-4.51-9.96h-26.5l-4.51 9.96Zm8.79-19.63h17.93l-8.93-19.93l-9 19.93Zm50.08 19.63h-10.88V34.14h10.88v52.69Zm17.97-41.4c-3.56 0-6.1-2.39-6.1-5.67s2.54-5.67 6.1-5.67c3.49 0 6.03 2.39 6.03 5.67s-2.54 5.67-6.03 5.67Zm5.42 41.4h-10.89V50.96h10.89v35.87Zm31.94.82c-5.41 0-9.82-1.86-12.77-5.12v19.35h-10.88V50.96h10.61v4.35c2.95-3.36 7.44-5.17 13.04-5.17c10.4 0 18.32 7.55 18.32 18.75s-7.92 18.76-18.32 18.76Zm-2.2-9.3c5.75 0 9.62-3.94 9.62-9.46c0-5.57-3.87-9.45-9.62-9.45c-5.68 0-9.61 3.88-9.61 9.45c0 5.52 3.93 9.46 9.61 9.46Zm38.91 9.3c-8.54 0-14.02-4.29-14.02-11.21c0-6.72 5.15-10.8 14.5-11.35l10.75-.62v-.62c0-3.74-2.61-5.81-7.51-5.81c-4.21 0-7.35 1.53-9.28 4.55l-7.91-4.56c3.4-5.23 9.48-7.89 17.86-7.89c10.81 0 17.32 5.25 17.32 14.38v22.31h-10.48v-4.22c-2.68 3.27-6.67 5.04-11.23 5.04Zm3.21-8.1c4.69 0 8.02-2.65 8.02-6.3v-2.15l-8.94.54c-3.87.21-5.82 1.66-5.82 4.15c0 2.33 2.42 3.76 6.74 3.76Z"/>
</svg>
