<svg xmlns="http://www.w3.org/2000/svg" width="1.62em" height="1em" viewBox="0 0 256 158" role="img" aria-label="JCB">
  <rect width="256" height="158" rx="18" fill="#fff"/>
  <rect x="1.5" y="1.5" width="253" height="155" rx="16.5" fill="none" stroke="#d7dde7" stroke-width="3"/>
  <path d="M38 16h52v126H38c-12.15 0-22-9.85-22-22V38c0-12.15 9.85-22 22-22Z" fill="#0b63ac"/>
  <path d="M90 16h76v126H90z" fill="#d62027"/>
  <path d="M166 16h52c12.15 0 22 9.85 22 22v82c0 12.15-9.85 22-22 22h-52z" fill="#009a44"/>
  <path fill="#fff" d="M68.72 104.85c-14.69 0-22.82-7.52-22.82-20.87V74.6h13.72v9.18c0 5.69 3.25 8.94 9.1 8.94c5.77 0 9.1-3.25 9.1-8.94V52.65h13.8v31.33c0 13.35-8.21 20.87-22.9 20.87Zm61.94-.08c-17.39 0-28.32-10.52-28.32-26.35c0-15.91 10.93-26.43 28.32-26.43c7.44 0 13.56 1.82 18.36 5.53l-6.54 10.19c-3.41-2.36-7.03-3.49-11.09-3.49c-8.86 0-14.77 5.69-14.77 14.2c0 8.45 5.85 14.13 14.77 14.13c4.06 0 7.68-1.14 11.09-3.49l6.54 10.19c-4.8 3.7-10.92 5.52-18.36 5.52Zm51.22-.89V52.65h27.63c12.38 0 20.07 5.45 20.07 14.12c0 5.44-3.09 9.66-8.37 11.57c6.25 1.62 9.91 6.17 9.91 12.22c0 8.29-7.6 13.32-20.06 13.32h-29.18Zm13.48-30.2h12.62c5.12 0 7.93-1.95 7.93-5.48c0-3.5-2.81-5.41-7.93-5.41h-12.62v10.89Zm0 20.06h13.72c5.28 0 8.21-1.95 8.21-5.61c0-3.62-2.93-5.6-8.21-5.6h-13.72v11.21Z"/>
</svg>
